<svg width="59" height="59" viewBox="0 0 59 59" fill="none" xmlns="http://www.w3.org/2000/svg">
<path d="M29.9679 0.365234C14.0175 0.365234 1.08337 13.5175 1.08337 29.7428C1.08337 42.7229 9.35966 53.735 20.8363 57.6196C22.2799 57.8916 22.8099 56.9823 22.8099 56.2064C22.8099 55.5058 22.7831 53.1916 22.7707 50.7368C14.735 52.5139 13.0393 47.2706 13.0393 47.2706C11.7254 43.8749 9.83223 42.9719 9.83223 42.9719C7.21154 41.1486 10.0298 41.186 10.0298 41.186C12.9303 41.3928 14.4575 44.2135 14.4575 44.2135C17.0337 48.7047 21.2147 47.4063 22.863 46.6556C23.1222 44.7574 23.8708 43.4604 24.6968 42.7272C18.2812 41.9844 11.5369 39.4653 11.5369 28.2085C11.5369 25.001 12.6653 22.3803 14.513 20.323C14.2131 19.5825 13.2244 16.595 14.7928 12.5484C14.7928 12.5484 17.2184 11.7588 22.7381 15.5597C25.0422 14.9088 27.5131 14.5824 29.9679 14.5712C32.4226 14.5824 34.8955 14.9088 37.2038 15.5597C42.7169 11.7588 45.139 12.5484 45.139 12.5484C46.7113 16.595 45.7221 19.5825 45.4222 20.323C47.2742 22.3803 48.3949 25.001 48.3949 28.2085C48.3949 39.4921 41.6378 41.9766 35.2059 42.7039C36.2419 43.6156 37.1651 45.4034 37.1651 48.1443C37.1651 52.0746 37.1316 55.2383 37.1316 56.2064C37.1316 56.9882 37.6515 57.9042 39.1156 57.6157C50.5861 53.7268 58.8519 42.7185 58.8519 29.7428C58.8519 13.5175 45.9197 0.365234 29.9679 0.365234Z" fill="#109D58"/>
<path d="M12.0234 42.5454C11.9598 42.6919 11.734 42.7352 11.5283 42.6349C11.3188 42.5391 11.2012 42.3401 11.2691 42.1937C11.3313 42.0434 11.5575 42.002 11.7665 42.1017C11.9765 42.1981 12.0961 42.399 12.0234 42.5454Z" fill="#109D58"/>
<path d="M13.1934 43.8722C13.0556 44.0021 12.7863 43.9418 12.6036 43.7365C12.4147 43.5317 12.3793 43.2578 12.519 43.1259C12.661 42.9961 12.9222 43.0569 13.1116 43.2617C13.3005 43.4689 13.3373 43.7409 13.1934 43.8722Z" fill="#109D58"/>
<path d="M14.3322 45.5645C14.1552 45.6895 13.8658 45.5723 13.6869 45.311C13.51 45.0498 13.51 44.7365 13.6908 44.611C13.8701 44.4854 14.1552 44.5983 14.3365 44.8576C14.513 45.1227 14.513 45.4365 14.3322 45.5645Z" fill="#109D58"/>
<path d="M15.8925 47.1991C15.7342 47.3767 15.397 47.329 15.1502 47.0867C14.8976 46.8498 14.8273 46.5136 14.9861 46.3361C15.1463 46.158 15.4855 46.2081 15.7342 46.4485C15.9848 46.6849 16.0614 47.0235 15.8925 47.1991Z" fill="#109D58"/>
<path d="M18.0449 48.148C17.9751 48.3781 17.6503 48.4827 17.3231 48.3849C16.9964 48.2842 16.7826 48.0147 16.8486 47.7822C16.9166 47.5506 17.2428 47.4416 17.5723 47.5462C17.8985 47.6464 18.1128 47.914 18.0449 48.148Z" fill="#109D58"/>
<path d="M20.4087 48.3243C20.4168 48.5665 20.1394 48.7675 19.796 48.7714C19.4506 48.7796 19.1713 48.5836 19.1675 48.3452C19.1675 48.1005 19.4387 47.9015 19.784 47.8957C20.1275 47.8889 20.4087 48.0835 20.4087 48.3243Z" fill="#109D58"/>
<path d="M22.6085 47.9433C22.6497 48.1798 22.411 48.4225 22.07 48.4867C21.7347 48.5495 21.4242 48.4035 21.3817 48.1691C21.34 47.9268 21.583 47.684 21.9178 47.6213C22.2594 47.5609 22.565 47.703 22.6085 47.9433Z" fill="#109D58"/>
</svg>
