<svg width="51" height="52" viewBox="0 0 51 52" fill="none" xmlns="http://www.w3.org/2000/svg">
<path d="M0 25.5C0 11.4167 11.4167 0 25.5 0C39.5833 0 51 11.4167 51 25.5C51 39.5833 39.5833 51 25.5 51C11.4167 51 0 39.5833 0 25.5Z" fill="white"/>
<mask id="mask0_11_333" style="mask-type:alpha" maskUnits="userSpaceOnUse" x="0" y="0" width="51" height="51">
<path fill-rule="evenodd" clip-rule="evenodd" d="M0 25.5C0 11.4167 11.4167 0 25.5 0C39.5833 0 51 11.4167 51 25.5C51 39.5833 39.5833 51 25.5 51C11.4167 51 0 39.5833 0 25.5Z" fill="white"/>
</mask>
<g mask="url(#mask0_11_333)">
<path fill-rule="evenodd" clip-rule="evenodd" d="M25.5013 11.9C21.8077 11.9 21.3442 11.9161 19.8935 11.9821C18.4457 12.0484 17.4574 12.2777 16.5926 12.614C15.6981 12.9613 14.9394 13.426 14.1834 14.1822C13.4269 14.9382 12.9623 15.697 12.6137 16.5912C12.2766 17.4562 12.0471 18.4448 11.9819 19.892C11.917 21.3427 11.9 21.8065 11.9 25.5001C11.9 29.1937 11.9165 29.6558 11.9822 31.1065C12.0488 32.5543 12.278 33.5426 12.614 34.4074C12.9617 35.3018 13.4264 36.0606 14.1826 36.8166C14.9382 37.5731 15.697 38.0389 16.5909 38.3862C17.4562 38.7226 18.4448 38.9518 19.8924 39.0181C21.3431 39.0841 21.8063 39.1003 25.4996 39.1003C29.1935 39.1003 29.6556 39.0841 31.1063 39.0181C32.5541 38.9518 33.5435 38.7226 34.4088 38.3862C35.303 38.0389 36.0607 37.5731 36.8163 36.8166C37.5728 36.0606 38.0375 35.3018 38.386 34.4076C38.7204 33.5426 38.9499 32.5541 39.0179 31.1068C39.083 29.6561 39.1 29.1937 39.1 25.5001C39.1 21.8065 39.083 21.343 39.0179 19.8923C38.9499 18.4445 38.7204 17.4562 38.386 16.5914C38.0375 15.697 37.5728 14.9382 36.8163 14.1822C36.0598 13.4257 35.3033 12.9611 34.408 12.614C33.541 12.2777 32.5521 12.0484 31.1043 11.9821C29.6536 11.9161 29.1918 11.9 25.4971 11.9H25.5013ZM25.0476 14.3507H25.048L25.5013 14.3508C29.1325 14.3508 29.5629 14.3638 30.9969 14.429C32.3229 14.4896 33.0425 14.7112 33.5219 14.8974C34.1566 15.1439 34.6091 15.4385 35.0848 15.9145C35.5608 16.3905 35.8555 16.8439 36.1026 17.4786C36.2887 17.9574 36.5106 18.6771 36.5709 20.0031C36.6361 21.4368 36.6503 21.8674 36.6503 25.497C36.6503 29.1265 36.6361 29.5572 36.5709 30.9909C36.5103 32.3169 36.2887 33.0366 36.1026 33.5154C35.8561 34.1501 35.5608 34.602 35.0848 35.0777C34.6088 35.5537 34.1569 35.8484 33.5219 36.0949C33.0431 36.2819 32.3229 36.5029 30.9969 36.5635C29.5632 36.6287 29.1325 36.6429 25.5013 36.6429C21.8697 36.6429 21.4394 36.6287 20.0057 36.5635C18.6797 36.5023 17.96 36.2808 17.4803 36.0946C16.8456 35.8481 16.3923 35.5534 15.9163 35.0774C15.4403 34.6014 15.1456 34.1492 14.8985 33.5143C14.7124 33.0354 14.4905 32.3157 14.4302 30.9897C14.365 29.556 14.352 29.1254 14.352 25.4936C14.352 21.8618 14.365 21.4334 14.4302 19.9997C14.4908 18.6737 14.7124 17.954 14.8985 17.4746C15.145 16.8399 15.4403 16.3866 15.9163 15.9106C16.3923 15.4346 16.8456 15.1399 17.4803 14.8928C17.9597 14.7058 18.6797 14.4848 20.0057 14.4239C21.2603 14.3672 21.7465 14.3502 24.2812 14.3474V14.3508C24.518 14.3504 24.7727 14.3506 25.0476 14.3507ZM31.1289 18.2404C31.1289 17.3391 31.8599 16.609 32.7609 16.609V16.6084C33.6619 16.6084 34.3929 17.3394 34.3929 18.2404C34.3929 19.1414 33.6619 19.8725 32.7609 19.8725C31.8599 19.8725 31.1289 19.1414 31.1289 18.2404ZM25.501 18.516C21.6441 18.5161 18.5171 21.6432 18.5171 25.5002C18.5171 29.3573 21.6443 32.483 25.5013 32.483C29.3584 32.483 32.4844 29.3573 32.4844 25.5002C32.4844 21.6431 29.3581 18.516 25.501 18.516ZM30.0347 25.5002C30.0347 22.9964 28.0049 20.9668 25.5013 20.9668C22.9975 20.9668 20.968 22.9964 20.968 25.5002C20.968 28.0038 22.9975 30.0336 25.5013 30.0336C28.0049 30.0336 30.0347 28.0038 30.0347 25.5002Z" fill="#EA4235"/>
</g>
</svg>
