<svg width="59" height="59" viewBox="0 0 59 59" fill="none" xmlns="http://www.w3.org/2000/svg">
<path fill-rule="evenodd" clip-rule="evenodd" d="M29.1015 0.148437C13.1195 0.148437 0.163483 13.1044 0.163483 29.0865C0.163483 45.0685 13.1195 58.0245 29.1015 58.0245C45.0836 58.0245 58.0396 45.0685 58.0396 29.0865C58.0396 13.1044 45.0836 0.148437 29.1015 0.148437ZM22.7391 13.7461C24.3854 13.6712 24.9114 13.6529 29.103 13.6529H29.0982C33.291 13.6529 33.8151 13.6712 35.4614 13.7461C37.1044 13.8213 38.2266 14.0815 39.2105 14.4631C40.2266 14.857 41.0851 15.3843 41.9436 16.2428C42.8021 17.1007 43.3294 17.9618 43.7249 18.9769C44.1043 19.9582 44.3647 21.0797 44.4419 22.7228C44.5159 24.3691 44.5352 24.8951 44.5352 29.0867C44.5352 33.2782 44.5159 33.803 44.4419 35.4492C44.3647 37.0916 44.1043 38.2135 43.7249 39.1951C43.3294 40.2099 42.8021 41.071 41.9436 41.9288C41.086 42.7874 40.2262 43.316 39.2115 43.7102C38.2295 44.0918 37.1067 44.352 35.4636 44.4272C33.8174 44.5021 33.2929 44.5204 29.1011 44.5204C24.9098 44.5204 24.3841 44.5021 22.7378 44.4272C21.0951 44.352 19.9733 44.0918 18.9913 43.7102C17.9768 43.316 17.1158 42.7874 16.2582 41.9288C15.4 41.071 14.8727 40.2099 14.4782 39.1948C14.0968 38.2135 13.8367 37.092 13.7612 35.4489C13.6866 33.8026 13.6679 33.2782 13.6679 29.0867C13.6679 24.8951 13.6872 24.3687 13.7608 22.7225C13.8348 21.0801 14.0952 19.9582 14.4779 18.9766C14.8734 17.9618 15.4007 17.1007 16.2592 16.2428C17.117 15.3847 17.9781 14.8573 18.9932 14.4631C19.9745 14.0815 21.0961 13.8213 22.7391 13.7461Z" fill="#EA4235"/>
<path fill-rule="evenodd" clip-rule="evenodd" d="M27.7185 16.434C27.9873 16.4336 28.2765 16.4337 28.5886 16.4339L29.103 16.434C33.2238 16.434 33.7122 16.4488 35.3395 16.5228C36.8443 16.5916 37.661 16.843 38.2051 17.0543C38.9253 17.334 39.4388 17.6684 39.9787 18.2086C40.5189 18.7488 40.8533 19.2632 41.1336 19.9835C41.3449 20.5269 41.5966 21.3436 41.6651 22.8484C41.7391 24.4754 41.7552 24.9641 41.7552 29.083C41.7552 33.2019 41.7391 33.6906 41.6651 35.3176C41.5963 36.8224 41.3449 37.6391 41.1336 38.1825C40.8539 38.9027 40.5189 39.4156 39.9787 39.9554C39.4385 40.4956 38.9256 40.83 38.2051 41.1098C37.6617 41.322 36.8443 41.5728 35.3395 41.6416C33.7126 41.7155 33.2238 41.7316 29.103 41.7316C24.9818 41.7316 24.4934 41.7155 22.8665 41.6416C21.3617 41.5721 20.545 41.3207 20.0006 41.1094C19.2803 40.8297 18.7659 40.4953 18.2257 39.9551C17.6855 39.4149 17.3511 38.9018 17.0707 38.1812C16.8595 37.6378 16.6077 36.8211 16.5392 35.3163C16.4653 33.6893 16.4505 33.2006 16.4505 29.0791C16.4505 24.9577 16.4653 24.4715 16.5392 22.8445C16.6081 21.3397 16.8595 20.523 17.0707 19.979C17.3505 19.2587 17.6855 18.7443 18.2257 18.2041C18.7659 17.6639 19.2803 17.3295 20.0006 17.0491C20.5446 16.8369 21.3617 16.5861 22.8665 16.517C24.2902 16.4527 24.842 16.4334 27.7185 16.4302V16.434ZM37.3414 18.9967C36.3189 18.9967 35.4894 19.8253 35.4894 20.8481C35.4894 21.8706 36.3189 22.7002 37.3414 22.7002C38.3639 22.7002 39.1935 21.8706 39.1935 20.8481C39.1935 19.8256 38.3639 18.996 37.3414 18.996V18.9967ZM21.1771 29.0865C21.1771 24.7094 24.7259 21.1606 29.103 21.1606H29.1027C33.4798 21.1606 37.0276 24.7094 37.0276 29.0865C37.0276 33.4636 33.4801 37.0108 29.103 37.0108C24.7259 37.0108 21.1771 33.4636 21.1771 29.0865Z" fill="#EA4235"/>
<path d="M29.103 23.9419C31.9441 23.9419 34.2476 26.2451 34.2476 29.0865C34.2476 31.9276 31.9441 34.2311 29.103 34.2311C26.2615 34.2311 23.9584 31.9276 23.9584 29.0865C23.9584 26.2451 26.2615 23.9419 29.103 23.9419V23.9419Z" fill="#EA4235"/>
</svg>
