<svg width="59" height="59" viewBox="0 0 59 59" fill="none" xmlns="http://www.w3.org/2000/svg">
<path fill-rule="evenodd" clip-rule="evenodd" d="M29.2874 0.148438C13.3053 0.148438 0.349335 13.1044 0.349335 29.0865C0.349335 45.0685 13.3053 58.0245 29.2874 58.0245C45.2694 58.0245 58.2254 45.0685 58.2254 29.0865C58.2254 13.1044 45.2694 0.148438 29.2874 0.148438ZM14.2416 24.1161H20.7996V43.8202H14.2416V24.1161ZM21.2313 18.0209C21.1888 16.089 19.8072 14.6175 17.5638 14.6175C15.3203 14.6175 13.8536 16.089 13.8536 18.0209C13.8536 19.9129 15.277 21.4268 17.4786 21.4268H17.5205C19.8072 21.4268 21.2313 19.9129 21.2313 18.0209ZM36.8998 23.6535C41.2152 23.6535 44.4505 26.4703 44.4505 32.5225L44.4502 43.8202H37.8925V33.2786C37.8925 30.6307 36.9435 28.8239 34.5695 28.8239C32.7577 28.8239 31.6785 30.042 31.2046 31.2184C31.0312 31.64 30.9886 32.2275 30.9886 32.8164V43.8208H24.4298C24.4298 43.8208 24.5163 25.9656 24.4298 24.1167H30.9886V26.9076C31.859 25.566 33.4179 23.6535 36.8998 23.6535Z" fill="#4286F5"/>
</svg>
