<svg width="51" height="51" viewBox="0 0 51 51" fill="none" xmlns="http://www.w3.org/2000/svg">
<path d="M0 25.5C0 11.4167 11.4167 0 25.5 0C39.5833 0 51 11.4167 51 25.5C51 39.5833 39.5833 51 25.5 51C11.4167 51 0 39.5833 0 25.5Z" fill="#0A66C2"/>
<path fill-rule="evenodd" clip-rule="evenodd" d="M0 25.5C0 11.4167 11.4167 0 25.5 0C39.5833 0 51 11.4167 51 25.5C51 39.5833 39.5833 51 25.5 51C11.4167 51 0 39.5833 0 25.5ZM13.0687 21.1969V38.25H18.4875V21.1969H13.0687ZM12.75 15.7781C12.75 17.5312 14.025 18.8063 15.7781 18.8063C17.5312 18.8063 18.8063 17.5312 18.8063 15.7781C18.8063 14.025 17.5312 12.75 15.7781 12.75C14.1844 12.75 12.75 14.025 12.75 15.7781ZM32.8313 38.25H37.9313V27.7313C37.9313 22.4719 34.7437 20.7188 31.7156 20.7188C29.0062 20.7188 27.0938 22.4719 26.6156 23.5875V21.1969H21.5156V38.25H26.9344V29.1656C26.9344 26.775 28.5281 25.5 30.1219 25.5C31.7156 25.5 32.8313 26.2969 32.8313 29.0062V38.25Z" fill="white"/>
</svg>
