<svg width="58" height="58" viewBox="0 0 58 58" fill="none" xmlns="http://www.w3.org/2000/svg">
<path d="M28.94 57.88C44.9231 57.88 57.88 44.9231 57.88 28.94C57.88 12.9569 44.9231 0 28.94 0C12.9569 0 0 12.9569 0 28.94C0 44.9231 12.9569 57.88 28.94 57.88Z" fill="#FABB04"/>
<path fill-rule="evenodd" clip-rule="evenodd" d="M15.4348 20.7104C15.4348 20.7104 27.0826 27.3155 29.3434 27.3155C31.713 27.3155 43.2346 20.8366 43.2346 20.8366L43.2531 19.679C43.2531 18.401 42.2159 17.3638 40.9344 17.3638H17.7523C16.472 17.3638 15.4348 18.401 15.4348 19.679V20.7104ZM43.2346 24.3095C43.2346 24.3095 31.8218 30.4991 29.3434 30.4991C27.0826 30.4991 15.4522 24.3095 15.4533 24.3095L15.4348 38.2007C15.4348 39.4787 16.4732 40.5159 17.7523 40.5159H40.9344C42.2159 40.5159 43.2531 39.4787 43.2531 38.2007L43.2346 24.3095Z" fill="white"/>
</svg>
