<svg width="51" height="51" viewBox="0 0 51 51" fill="none" xmlns="http://www.w3.org/2000/svg">
<path d="M25.5 51C39.5833 51 51 39.5833 51 25.5C51 11.4167 39.5833 0 25.5 0C11.4167 0 0 11.4167 0 25.5C0 39.5833 11.4167 51 25.5 51Z" fill="white"/>
<path fill-rule="evenodd" clip-rule="evenodd" d="M13.6 18.2488C13.6 18.2488 23.8632 24.0688 25.8553 24.0688C27.9432 24.0688 38.0953 18.36 38.0953 18.36L38.1116 17.34C38.1116 16.2139 37.1977 15.3 36.0685 15.3H15.642C14.5139 15.3 13.6 16.2139 13.6 17.34V18.2488ZM38.0953 21.4201C38.0953 21.4201 28.0391 26.8739 25.8553 26.8739C23.8632 26.8739 13.6153 21.4201 13.6163 21.4201L13.6 33.6601C13.6 34.7861 14.5149 35.7001 15.642 35.7001H36.0685C37.1977 35.7001 38.1116 34.7861 38.1116 33.6601L38.0953 21.4201Z" fill="#FABB04"/>
</svg>
